<svg width="776" height="769" viewBox="0 0 776 769" fill="none" xmlns="http://www.w3.org/2000/svg">
<path d="M430.095 766.36C417.565 767.84 378.445 768.99 366.095 768.24C269.305 762.36 182.395 723.15 112.485 653.83C50.4551 592.31 13.0051 516.62 1.89512 430.33C-0.654881 410.51 -0.624885 353.08 1.94511 334.83C13.4751 253.03 44.7551 185.35 98.9651 124.93C143.285 75.5202 206.355 35.8101 271.185 16.4901C296.785 8.86015 311.765 5.61014 337.095 2.19014C352.735 0.0801444 403.605 -0.749855 422.285 0.800145C471.515 4.88015 513.565 16.3402 558.395 37.9002C578.315 47.4801 589.165 53.5901 606.095 64.7501C700.875 127.24 761.885 228.23 774.705 343.83C776.375 358.86 776.415 401.95 774.775 417.83C767.165 491.54 739.465 561.75 696.025 617.4C659.135 664.66 616.415 699.96 564.095 726.4C520.945 748.2 479.715 760.5 430.095 766.36ZM466.175 720.08C466.655 738 467.195 745.83 467.975 745.82C468.595 745.82 474.295 744.49 480.655 742.87C525.175 731.51 572.005 709.59 608.595 682.98C657.855 647.16 699.155 597.85 724.685 544.36C740.765 510.68 752.935 471.05 758.005 435.83C768.905 360.2 757.065 286.4 723.195 218.83C671.255 115.23 572.965 41.8601 458.095 20.9501C411.565 12.4801 355.585 12.6701 311.595 21.4501C260.015 31.7401 210.935 52.8302 168.095 83.1301C107.555 125.93 56.9551 193.44 33.4151 262.83C18.3851 307.11 12.7651 343.65 13.8751 389.75C15.7351 466.66 38.4451 534.94 82.7451 596.83C90.6751 607.91 106.755 627.75 107.845 627.8C108.255 627.82 108.595 608.75 108.595 585.43V543.02L94.6751 542.68C81.5551 542.35 80.6051 542.19 78.1751 539.91C74.7451 536.69 74.7751 532.62 78.2251 529.9C80.5351 528.09 82.2551 527.83 91.8351 527.83H102.795L97.7051 522.26C90.6251 514.51 89.2351 509.37 89.7951 492.93C90.1751 481.74 90.5151 479.75 92.8651 475.19C95.8351 469.44 102.215 463.46 107.375 461.59L110.795 460.35L110.085 440.33C109.295 418.27 109.785 415.44 115.395 409.45C123.445 400.87 138.505 400.65 146.295 409C151.225 414.28 151.965 418 152.395 439.61L152.805 459.89L156.375 461.38C158.345 462.21 160.375 462.74 160.885 462.57C163.295 461.76 171.205 433.77 181.585 389.33C190.495 351.17 190.535 351.03 194.665 342.27C200.065 330.83 209.645 321.82 223.785 314.88C229.445 312.1 234.625 309.83 235.275 309.83C235.935 309.83 236.725 309.43 237.025 308.94C237.325 308.45 238.035 300.24 238.605 290.69C239.165 281.14 240.075 269.28 240.625 264.33C242.975 243.24 248.915 219.34 254.885 206.96L258.075 200.33L258.165 173.83C258.255 145.18 258.915 140.14 264.175 127.65C273.755 104.87 296.325 86.6002 321.455 81.2701C329.955 79.4701 348.195 79.4601 356.655 81.2601C385.145 87.2901 408.605 109.65 416.785 138.53C418.845 145.81 418.965 148.08 418.725 172.83L418.465 199.33L421.935 206.83C430.545 225.47 435.395 249.42 438.195 287.09C438.505 291.35 439.125 294.62 439.575 294.34C440.525 293.75 444.555 285.51 461.805 248.83C463.295 245.67 464.665 242.76 465.935 240.06C479.565 211.11 481.005 208.05 480.075 206.14C479.885 205.73 479.575 205.38 479.265 204.85C477.005 201.03 477.165 198.31 479.785 195.87C481.855 193.94 483.205 193.83 505.645 193.83H529.315L536.125 179.08C539.875 170.97 544.435 161.22 546.265 157.41C548.095 153.61 549.595 149.96 549.595 149.29C549.595 148.63 548.625 145.89 547.435 143.21C545.905 139.76 545.265 136.27 545.245 131.33C545.085 99.6201 588.365 89.2601 602.315 117.67C604.705 122.53 605.095 124.53 605.075 131.83C605.055 138.59 604.585 141.26 602.795 144.9C599.605 151.37 594.285 156.62 588.005 159.5L582.595 161.98V193.83H626.595C669.265 193.83 670.655 193.89 672.595 195.83C674.975 198.21 675.195 202.51 673.055 204.88C671.435 206.66 671.995 208 695.085 257.33C697.655 262.83 702.275 272.73 705.345 279.33C708.415 285.93 711.525 292.22 712.265 293.3C714.015 295.89 713.955 302.04 712.105 309.14C705.745 333.55 681.205 350.12 657.645 345.91C636.285 342.09 619.365 324.74 616.305 303.53C615.355 296.95 615.435 295.72 616.955 293.4C618.505 291.03 657.595 210.03 657.595 209.18C657.595 208.99 640.575 208.83 619.765 208.83H581.945L579.755 219.92C576.865 234.55 569.875 259.83 563.725 277.83C554.015 306.3 549.985 314.62 539.825 327.23C518.485 353.71 486.625 375.01 450.635 386.87L439.095 390.67L439.295 397.5C439.695 411.55 436.265 432.12 424.475 486.24C421.365 500.52 421.295 501.32 422.795 505.24C441.955 555.12 447.385 572.55 454.515 607.04C461.435 640.5 464.985 674.86 466.175 720.08ZM368.095 754.16C388.065 755.4 417.825 754.08 439.505 750.99L451.095 749.33L450.965 716.83C450.815 680.42 448.965 657.73 443.565 626.15C437.135 588.51 429.405 561.74 411.795 516.07L410.155 511.82L340.305 512.07L270.445 512.33L265.915 522.83C259.965 536.65 247.575 574.08 243.745 589.83C234.995 625.78 230.345 662.85 230.185 697.83L230.095 719.33L242.095 724.52C255.895 730.49 282.515 739.52 297.095 743.19C318.095 748.46 346.025 752.78 368.095 754.16ZM172.375 498.52L171.895 511.09L178.925 510.44C197.785 508.68 208.505 497.32 221.925 464.83C232.755 438.61 239.345 414.6 240.275 398.02C241.015 384.78 242.445 381.83 248.115 381.83C253.785 381.83 254.595 384.11 254.615 400.3C254.645 421.78 257.095 437.01 267.235 478.58L271.925 497.83H407.395L408.485 493.08C412.095 477.42 420.795 435.52 422.545 425.45C424.005 417 424.605 409.06 424.625 397.95C424.655 381.74 424.995 380.28 429.155 378.06C430.295 377.45 435.875 375.78 441.565 374.34C454.755 371 466.255 366.34 479.555 358.98C491.985 352.09 501.925 345.83 501.345 345.25C501.115 345.02 498.265 345.33 495.015 345.94C483.745 348.04 471.375 345.15 460.755 337.94C454.285 333.54 448.285 327.19 445.805 322.08L444.225 318.83H432.555C426.135 318.83 418.235 318.56 414.995 318.22L409.095 317.62L405.245 325.47C389.525 357.59 366.595 374.21 338.095 374.16C322.405 374.13 309.415 369.36 295.985 358.72C286.595 351.28 279.705 342.14 272.045 326.94C267.785 318.5 267.305 317.93 264.785 318.36C263.305 318.61 257.665 319.53 252.245 320.41C233.335 323.48 219.215 330.9 210.945 342.14C205.785 349.16 204.665 352.6 196.645 386.33C183.035 443.52 178.815 458.91 173.495 470.69C170.875 476.49 170.715 477.44 171.745 481.5C172.425 484.2 172.675 490.87 172.375 498.52ZM206.595 707.51C210.715 709.88 214.385 711.82 214.745 711.82C215.095 711.83 215.445 705.87 215.515 698.58C215.905 657.22 223.595 605.14 234.745 568.33C239.395 552.98 245.265 536.64 251.295 522.33C255.665 511.96 257.685 507.8 257.965 503.52C258.195 500.16 257.345 496.72 255.705 490.14C255.405 488.94 255.085 487.63 254.735 486.21C251.055 471.09 245.595 446.69 245.595 445.35C245.595 445.06 245.225 444.83 244.775 444.83C244.335 444.83 242.915 447.87 241.625 451.58C237.335 463.98 231.645 477.78 226.985 487.1C213.005 515.04 198.825 524.78 172.035 524.82C164.755 524.83 161.445 525.24 160.035 526.3C158.295 527.62 159.265 527.77 169.625 527.8C183.785 527.84 185.865 528.81 185.395 535.17C184.935 541.53 181.535 542.83 165.345 542.83H152.595V670.66L160.845 677.04C175.475 688.35 189.535 697.71 206.595 707.51ZM331.355 359.81C340.975 361.45 354.935 358.67 364.245 353.27C371.115 349.29 379.285 341.1 385.035 332.46C389.825 325.26 395.135 314.95 394.375 314.32C394.215 314.2 391.845 313.35 389.095 312.44C386.345 311.53 381.965 309.22 379.355 307.3C372.235 302.08 368.955 295.86 367.095 284.09C366.505 280.36 366.205 279.97 364.575 280.84C360.585 282.98 345.695 285.82 338.455 285.82C331.725 285.83 317.485 282.97 311.465 280.4C310.135 279.84 309.715 280.59 309.165 284.52C307.335 297.55 301.285 306.33 290.395 311.77C287.025 313.45 283.665 314.83 282.925 314.83C281.975 314.83 282.515 316.7 284.715 321.08C295.945 343.38 311.685 356.45 331.355 359.81ZM332.665 271.69C342.665 272.94 355.215 270.26 363.375 265.12C374.905 257.86 383.645 248.68 391.025 236.09C394.745 229.74 399.595 217.98 399.595 215.31C399.595 214.02 391.675 213.83 338.095 213.83C304.265 213.83 276.595 213.98 276.595 214.17C276.595 215.9 281.295 227.37 284.615 233.76C295.165 254.02 314.675 269.43 332.665 271.69ZM273.595 150.72C273.595 152.17 275.435 152.12 285.305 150.38C306.185 146.71 320.665 140 331.255 129.11C337.155 123.04 339.535 123.28 348.005 130.75C355.675 137.52 366.945 143.71 377.095 146.72C386.975 149.66 401.765 152.06 402.905 150.92C404.115 149.71 400.335 137.21 396.555 129.87C388.615 114.48 372.945 101.71 356.545 97.2801C347.335 94.7901 334.165 94.3501 325.095 96.2201C306.335 100.1 289.485 112.73 280.905 129.33C277.335 136.23 273.595 147.18 273.595 150.72ZM535.255 306.33C534.415 310.93 535.195 310.18 539.185 302.52C545.745 289.93 559.635 246.32 564.565 222.83C564.835 221.56 565.085 220.41 565.315 219.36C566.455 214.14 567.045 211.48 565.975 210.14C564.865 208.75 561.975 208.77 556.105 208.81C554.975 208.82 553.715 208.83 552.345 208.83H538.095L516.835 254.7L526.315 275.01C535.935 295.63 536.715 298.33 535.255 306.33ZM113.015 516.44C115.305 517.47 120.245 517.76 132.275 517.58C146.945 517.35 148.715 517.13 151.275 515.23C156.915 511.01 158.095 507.5 158.095 494.83C158.095 482.18 157.155 479.03 152.275 475.42C149.655 473.48 148.215 473.34 132.745 473.44C117.775 473.55 115.615 473.78 111.845 475.7C105.985 478.69 104.305 482.4 103.795 493.47C103.185 506.42 105.945 513.29 113.015 516.44ZM253.015 292.08L252.325 304.83H254.825C259.665 304.83 275.155 301.78 280.735 299.74C291.545 295.77 295.575 289.73 295.585 277.48L295.595 271.62L288.615 264.65C278.505 254.53 272.395 244.79 264.905 226.83C263.935 224.51 263.705 224.82 261.675 231.33C257.685 244.12 254.355 267.48 253.015 292.08ZM408.425 302.33C412.645 303.04 418.005 303.67 420.335 303.73L424.575 303.83L424.035 294.58C423.025 277.02 421.445 261.3 419.655 250.83C417.435 237.86 413.575 223.41 412.635 224.51C412.245 224.96 411.115 227.58 410.115 230.33C405.205 243.87 397.325 256.29 387.425 266.09C380.895 272.55 380.595 273.05 380.605 277.59C380.615 292.42 387.875 298.88 408.425 302.33ZM458.885 290.08C458.395 291.72 460.205 291.83 487.315 291.83C503.235 291.83 516.505 291.58 516.815 291.28C517.115 290.98 516.365 288.61 515.135 286.03C513.905 283.44 507.575 269.85 501.075 255.83C494.575 241.81 488.885 229.91 488.445 229.4C487.995 228.88 485.885 232.22 483.705 236.9C481.545 241.54 475.195 255 469.595 266.83C463.995 278.66 459.175 289.12 458.885 290.08ZM635.595 290.98C635.595 291.9 692.905 292.19 693.825 291.27C694.125 290.96 693.785 289.5 693.055 288.02C692.325 286.54 686.815 274.75 680.825 261.83C674.825 248.91 668.755 236.08 667.345 233.33L664.765 228.33L660.795 236.83C658.615 241.5 652.045 255.41 646.205 267.73C640.375 280.05 635.595 290.52 635.595 290.98ZM274.265 198.17C274.635 198.54 303.775 198.73 339.015 198.59L403.095 198.33L403.395 191.58L403.685 184.83H273.595V191.16C273.595 194.65 273.895 197.8 274.265 198.17ZM130.315 651.05C134.015 654.78 137.165 657.83 137.315 657.83C137.475 657.83 137.595 631.95 137.595 600.33V542.83H123.595V644.28L130.315 651.05ZM273.595 168.85C273.595 169.48 296.765 169.83 338.595 169.83C380.425 169.83 403.595 169.48 403.595 168.85C403.595 167.76 403.185 167.66 389.595 165.33C372.695 162.44 357.155 155.98 344.885 146.75C342.025 144.59 339.435 142.83 339.145 142.83C338.845 142.83 335.785 144.9 332.345 147.44C320.225 156.37 305.415 162.28 287.365 165.37C274.035 167.66 273.595 167.77 273.595 168.85ZM477.475 330.51C479.775 331.37 484.015 331.73 489.095 331.52C498.505 331.11 505.225 328.2 511.715 321.71C515.495 317.93 519.525 310.95 519.575 308.08C519.595 307.11 512.545 306.83 487.595 306.83C466.115 306.83 455.595 307.17 455.595 307.87C455.595 309.93 459.755 317 463.235 320.85C467.155 325.19 471.955 328.44 477.475 330.51ZM654.305 330.36C660.015 332.54 672.825 331.76 678.905 328.85C686.925 325.02 696.475 313.79 696.575 308.08C696.595 307.11 689.545 306.83 664.595 306.83C643.245 306.83 632.595 307.17 632.595 307.86C632.595 308.43 633.675 311.02 635.005 313.61C638.535 320.52 646.375 327.32 654.305 330.36ZM569.595 146.71C576.285 149.37 584.225 146.86 588.225 140.81C593.095 133.45 592.315 125.86 586.065 119.8C583.005 116.84 581.815 116.38 576.335 116.04C571.045 115.71 569.575 116.01 566.695 117.99C556.085 125.29 557.765 141.99 569.595 146.71ZM125.235 454.58L125.825 458.83H137.295L137.945 450.58C139.085 435.93 138.735 424 137.065 420.78C135.735 418.2 134.995 417.83 131.225 417.83C123.755 417.83 123.195 419.25 123.985 436.06C124.355 443.91 124.915 452.24 125.235 454.58ZM546.115 191.77C545.475 193.77 545.795 193.83 557.025 193.83H568.595V161.32L564.855 160.15C562.795 159.5 561.055 159.06 560.985 159.15C560.405 159.92 546.625 190.17 546.115 191.77ZM501.845 223.15C505.255 230.67 508.335 236.83 508.675 236.83C509.015 236.83 512.225 230.64 515.805 223.08L522.315 209.33L509.315 209.05C502.165 208.9 496.165 208.93 495.975 209.12C495.785 209.31 498.425 215.62 501.845 223.15Z" fill="#020202"/>
</svg>
